<?xml version="1.0" standalone="no"?><!DOCTYPE svg PUBLIC "-//W3C//DTD SVG 1.1//EN" "http://www.w3.org/Graphics/SVG/1.1/DTD/svg11.dtd"><svg t="1651803980910" class="icon" viewBox="0 0 1024 1024" version="1.1" xmlns="http://www.w3.org/2000/svg" p-id="4259" xmlns:xlink="http://www.w3.org/1999/xlink" width="200" height="200"><defs><style type="text/css"></style></defs><path d="M137.2 883.4c-12.6 0-25.8-2.2-39.4-6.8-92.2-32-116.2-169.4-67.4-387 21.4-95.4 47-168.2 78.2-222.4 35.8-62.2 80.8-101.6 134-117.4l0.4-0.2c21.6-6 44.2-9.2 66.6-9 28.8 0 53.8 7 80.6 14.6 32.2 9 68.6 19.2 121.8 19.2s89.6-10.2 121.8-19.2c26.6-7.4 51.8-14.6 80.8-14.6 21.8 0 43.4 3 64.4 9 100 29.6 167.4 137.6 212.2 339.8 22.6 102.2 31 181.2 25.6 241.2-7 78.4-38.4 127.4-92.8 146-34.6 11.8-70.2 7.2-105.8-13.4-26.8-15.6-53.6-40.4-82-75.8-45.2-56.2-97.6-73.4-224-73.4-126.8 0-181.8 17.8-226.4 73.4-34.8 43.4-85.4 96-148.6 96zM512 646.8c128 0 210 15.8 276.6 98.6 45 56.2 82.2 78.2 113.4 67.6 70.4-24 51.4-181.2 23.2-308.8-38.4-173.4-92.4-268-165.2-289.6-14.4-4.2-29.4-6.4-44.4-6.4h-0.8c-19.8 0-38.8 5.4-62.8 12-34.6 9.6-77.6 21.8-140 21.8-62.4 0-105.4-12-140-21.8-24-6.8-42.8-12-62.4-12-16.4 0-32.4 2-48 6.4-72.2 21.6-126.4 116.2-165.2 289.6-19.8 88.2-27 164.2-21 219.8 3.8 34.6 14.6 78.2 44.6 88.6 40.8 14.2 81.8-28.6 113-67.4 31-38.6 66.2-63.6 111-78.6 41.6-13.6 93.4-19.8 168-19.8z" p-id="4260" fill="#ffffff"></path><path d="M630.2 444.4c0 1.4 0 2.8-0.2 4.2s-0.4 2.8-0.6 4c-0.2 1.4-0.6 2.6-1 4s-0.8 2.6-1.4 3.8c-0.6 1.2-1.2 2.6-1.8 3.8-0.6 1.2-1.4 2.4-2.2 3.6-0.8 1.2-1.6 2.2-2.4 3.4-0.8 1-1.8 2-2.8 3s-2 2-3 2.8c-1 0.8-2.2 1.6-3.4 2.4-1.2 0.8-2.4 1.4-3.6 2.2-1.2 0.6-2.4 1.2-3.8 1.8-1.2 0.6-2.6 1-3.8 1.4-1.4 0.4-2.6 0.8-4 1-1.4 0.2-2.8 0.4-4 0.6-1.4 0.2-2.8 0.2-4.2 0.2-1.4 0-2.8 0-4.2-0.2s-2.8-0.4-4-0.6c-1.4-0.2-2.6-0.6-4-1s-2.6-0.8-3.8-1.4c-1.2-0.6-2.6-1.2-3.8-1.8-1.2-0.6-2.4-1.4-3.6-2.2-1.2-0.8-2.2-1.6-3.4-2.4-1-0.8-2-1.8-3-2.8-1-1-2-2-2.8-3-0.8-1-1.6-2.2-2.4-3.4-0.8-1.2-1.4-2.4-2.2-3.6-0.6-1.2-1.2-2.4-1.8-3.8-0.6-1.2-1-2.6-1.4-3.8-0.4-1.4-0.8-2.6-1-4-0.2-1.4-0.4-2.8-0.6-4-0.2-1.4-0.2-2.8-0.2-4.2s0-2.8 0.2-4.2c0.2-1.4 0.4-2.8 0.6-4 0.2-1.4 0.6-2.6 1-4s0.8-2.6 1.4-3.8 1.2-2.6 1.8-3.8c0.6-1.2 1.4-2.4 2.2-3.6 0.8-1.2 1.6-2.2 2.4-3.4 0.8-1 1.8-2 2.8-3 1-1 2-2 3-2.8 1-0.8 2.2-1.6 3.4-2.4 1.2-0.8 2.4-1.4 3.6-2.2 1.2-0.6 2.4-1.2 3.8-1.8 1.2-0.6 2.6-1 3.8-1.4 1.4-0.4 2.6-0.8 4-1 1.4-0.2 2.8-0.4 4-0.6 1.4-0.2 2.8-0.2 4.2-0.2 1.4 0 2.8 0 4.2 0.2 1.4 0.2 2.8 0.4 4 0.6 1.4 0.2 2.6 0.6 4 1s2.6 0.8 3.8 1.4c1.2 0.6 2.6 1.2 3.8 1.8 1.2 0.6 2.4 1.4 3.6 2.2 1.2 0.8 2.2 1.6 3.4 2.4 1 0.8 2 1.8 3 2.8 1 1 2 2 2.8 3 0.8 1 1.6 2.2 2.4 3.4 0.8 1.2 1.4 2.4 2.2 3.6 0.6 1.2 1.2 2.4 1.8 3.8 0.6 1.2 1 2.6 1.4 3.8 0.4 1.4 0.8 2.6 1 4 0.2 1.4 0.4 2.8 0.6 4 0 1.6 0.2 3 0.2 4.2zM680.8 579.4c-1.4 0-2.8 0-4.2-0.2-1.4-0.2-2.8-0.4-4-0.6-1.4-0.2-2.6-0.6-4-1s-2.6-0.8-4-1.4c-1.2-0.6-2.6-1.2-3.8-1.8s-2.4-1.4-3.6-2.2c-1.2-0.8-2.2-1.6-3.4-2.4-1-0.8-2-1.8-3-2.8-1-1-2-2-2.8-3-0.8-1-1.6-2.2-2.4-3.4-0.8-1.2-1.4-2.4-2.2-3.6-0.6-1.2-1.2-2.4-1.8-3.8-0.6-1.2-1-2.6-1.4-4-0.4-1.4-0.8-2.6-1-4-0.2-1.4-0.4-2.8-0.6-4-0.2-1.4-0.2-2.8-0.2-4.2 0-1.4 0-2.8 0.2-4.2 0.2-1.4 0.4-2.8 0.6-4 0.2-1.4 0.6-2.6 1-4s0.8-2.6 1.4-3.8c0.6-1.2 1.2-2.6 1.8-3.8 0.6-1.2 1.4-2.4 2.2-3.6 0.8-1.2 1.6-2.2 2.4-3.4 0.8-1 1.8-2 2.8-3 1-1 2-2 3-2.8 1-0.8 2.2-1.6 3.4-2.4 1.2-0.8 2.4-1.4 3.6-2.2 1.2-0.6 2.4-1.2 3.8-1.8 1.2-0.6 2.6-1 4-1.4 1.4-0.4 2.6-0.8 4-1 1.4-0.2 2.8-0.4 4-0.6 1.4-0.2 2.8-0.2 4.2-0.2s2.8 0 4.2 0.2 2.8 0.4 4 0.6c1.4 0.2 2.6 0.6 4 1s2.6 0.8 3.8 1.4c1.2 0.6 2.6 1.2 3.8 1.8 1.2 0.6 2.4 1.4 3.6 2.2s2.2 1.6 3.4 2.4c1 0.8 2 1.8 3 2.8s2 2 2.8 3c0.8 1 1.6 2.2 2.4 3.4 0.8 1.2 1.4 2.4 2.2 3.6 0.6 1.2 1.2 2.4 1.8 3.8s1 2.6 1.4 4c0.4 1.4 0.8 2.6 1 4 0.2 1.4 0.4 2.8 0.6 4 0.2 1.4 0.2 2.8 0.2 4.2 0 1.4 0 2.8-0.2 4.2-0.2 1.4-0.4 2.8-0.6 4-0.2 1.4-0.6 2.6-1 4s-0.8 2.6-1.4 3.8-1.2 2.6-1.8 3.8c-0.6 1.2-1.4 2.4-2.2 3.6-0.8 1.2-1.6 2.2-2.4 3.4-0.8 1-1.8 2-2.8 3-1 1-2 1.8-3 2.8-1 0.8-2.2 1.6-3.4 2.4-1.2 0.8-2.4 1.4-3.6 2.2-1.2 0.6-2.4 1.2-3.8 1.8-1.2 0.6-2.6 1-3.8 1.4-1.4 0.4-2.6 0.8-4 1-1.4 0.2-2.8 0.4-4 0.6s-2.8 0.2-4.2 0.2zM723 351.6c0 1.4 0 2.8-0.2 4.2-0.2 1.4-0.4 2.8-0.6 4-0.2 1.4-0.6 2.6-1 4s-0.8 2.6-1.4 3.8c-0.6 1.2-1.2 2.6-1.8 3.8-0.6 1.2-1.4 2.4-2.2 3.6-0.8 1.2-1.6 2.2-2.4 3.4s-1.8 2-2.8 3c-1 1-2 2-3 2.8-1 0.8-2.2 1.6-3.4 2.4-1.2 0.8-2.4 1.4-3.6 2.2-1.2 0.6-2.4 1.2-3.8 1.8-1.2 0.6-2.6 1-3.8 1.4-1.4 0.4-2.6 0.8-4 1-1.4 0.2-2.8 0.4-4 0.6-1.4 0.2-2.8 0.2-4.2 0.2-1.4 0-2.8 0-4.2-0.2-1.4-0.2-2.8-0.4-4-0.6s-2.6-0.6-4-1-2.6-0.8-3.8-1.4c-1.2-0.6-2.6-1.2-3.8-1.8s-2.4-1.4-3.6-2.2c-1.2-0.8-2.2-1.6-3.4-2.4-1-0.8-2-1.8-3-2.8s-2-2-2.8-3c-0.8-1-1.6-2.2-2.4-3.4-0.8-1.2-1.4-2.4-2.2-3.6-0.6-1.2-1.2-2.4-1.8-3.8-0.6-1.2-1-2.6-1.4-3.8-0.4-1.4-0.8-2.6-1-4-0.2-1.4-0.4-2.8-0.6-4-0.2-1.4-0.2-2.8-0.2-4.2 0-1.4 0-2.8 0.2-4.2 0.2-1.4 0.4-2.8 0.6-4 0.2-1.4 0.6-2.6 1-4s0.8-2.6 1.4-3.8c0.6-1.2 1.2-2.6 1.8-3.8 0.6-1.2 1.4-2.4 2.2-3.6 0.8-1.2 1.6-2.2 2.4-3.4 0.8-1 1.8-2 2.8-3 1-1 2-2 3-2.8 1-0.8 2.2-1.6 3.4-2.4 1.2-0.8 2.4-1.4 3.6-2.2s2.4-1.2 3.8-1.8c1.2-0.6 2.6-1 3.8-1.4 1.4-0.4 2.6-0.8 4-1s2.8-0.4 4-0.6c1.4-0.2 2.8-0.2 4.2-0.2 1.4 0 2.8 0 4.2 0.2 1.4 0.2 2.8 0.4 4 0.6 1.4 0.2 2.6 0.6 4 1s2.6 0.8 3.8 1.4c1.2 0.6 2.6 1.2 3.8 1.8 1.2 0.6 2.4 1.4 3.6 2.2 1.2 0.8 2.2 1.6 3.4 2.4 1 0.8 2 1.8 3 2.8 1 1 2 2 2.8 3 0.8 1 1.6 2.2 2.4 3.4 0.8 1.2 1.4 2.4 2.2 3.6 0.6 1.2 1.2 2.4 1.8 3.8 0.6 1.2 1 2.6 1.4 3.8 0.4 1.4 0.8 2.6 1 4 0.2 1.4 0.4 2.8 0.6 4 0 1.6 0.2 2.8 0.2 4.2zM815.8 444.4c0 1.4 0 2.8-0.2 4.2s-0.4 2.8-0.6 4-0.6 2.6-1 4-0.8 2.6-1.4 3.8c-0.6 1.2-1.2 2.6-1.8 3.8-0.6 1.2-1.4 2.4-2.2 3.6-0.8 1.2-1.6 2.2-2.4 3.4-0.8 1-1.8 2-2.8 3-1 1-2 2-3 2.8-1 0.8-2.2 1.6-3.4 2.4-1.2 0.8-2.4 1.4-3.6 2.2-1.2 0.6-2.4 1.2-3.8 1.8-1.2 0.6-2.6 1-3.8 1.4-1.4 0.4-2.6 0.8-4 1-1.4 0.2-2.8 0.4-4 0.6-1.4 0.2-2.8 0.2-4.2 0.2-1.4 0-2.8 0-4.2-0.2-1.4-0.2-2.8-0.4-4-0.6-1.4-0.2-2.6-0.6-4-1s-2.6-0.8-3.8-1.4-2.6-1.2-3.8-1.8c-1.2-0.6-2.4-1.4-3.6-2.2-1.2-0.8-2.2-1.6-3.4-2.4-1-0.8-2-1.8-3-2.8-1-1-2-2-2.8-3-0.8-1-1.6-2.2-2.4-3.4-0.8-1.2-1.4-2.4-2.2-3.6-0.6-1.2-1.2-2.4-1.8-3.8-0.6-1.2-1-2.6-1.4-3.8-0.4-1.4-0.8-2.6-1-4-0.2-1.4-0.4-2.8-0.6-4-0.2-1.4-0.2-2.8-0.2-4.2s0-2.8 0.2-4.2c0.2-1.4 0.4-2.8 0.6-4 0.2-1.4 0.6-2.6 1-4s0.8-2.6 1.4-3.8c0.6-1.2 1.2-2.6 1.8-3.8s1.4-2.4 2.2-3.6c0.8-1.2 1.6-2.2 2.4-3.4s1.8-2 2.8-3c1-1 2-2 3-2.8 1-0.8 2.2-1.6 3.4-2.4 1.2-0.8 2.4-1.4 3.6-2.2 1.2-0.6 2.4-1.2 3.8-1.8s2.6-1 3.8-1.4c1.4-0.4 2.6-0.8 4-1 1.4-0.2 2.8-0.4 4-0.6 1.4-0.2 2.8-0.2 4.2-0.2 1.4 0 2.8 0 4.2 0.2 1.4 0.2 2.8 0.4 4 0.6 1.4 0.2 2.6 0.6 4 1s2.6 0.8 3.8 1.4c1.2 0.6 2.6 1.2 3.8 1.8 1.2 0.6 2.4 1.4 3.6 2.2 1.2 0.8 2.2 1.6 3.4 2.4 1 0.8 2 1.8 3 2.8 1 1 2 2 2.8 3 0.8 1 1.6 2.2 2.4 3.4 0.8 1.2 1.4 2.4 2.2 3.6 0.6 1.2 1.2 2.4 1.8 3.8 0.6 1.2 1 2.6 1.4 3.8 0.4 1.4 0.8 2.6 1 4s0.4 2.8 0.6 4c0 1.6 0.2 3 0.2 4.2zM309.4 579.4c-18.6 0-33.8-15.2-33.8-33.8V478H208c-18.6 0-33.8-15.2-33.8-33.8s15.2-33.8 33.8-33.8h67.6v-67.6c0-18.6 15.2-33.8 33.8-33.8s33.8 15.2 33.8 33.8v67.6h67.6c18.6 0 33.8 15.2 33.8 33.8s-15.2 33.8-33.8 33.8h-67.6v67.6c0 18.8-15 33.8-33.8 33.8z" p-id="4261" fill="#ffffff"></path></svg>