<?xml version="1.0" standalone="no"?><!DOCTYPE svg PUBLIC "-//W3C//DTD SVG 1.1//EN" "http://www.w3.org/Graphics/SVG/1.1/DTD/svg11.dtd"><svg t="1651804028678" class="icon" viewBox="0 0 1024 1024" version="1.1" xmlns="http://www.w3.org/2000/svg" fill="#fff" p-id="4466" xmlns:xlink="http://www.w3.org/1999/xlink" width="200" height="200"><defs><style type="text/css"></style></defs><path d="M959.68 642.944l-1.472-10.432-96.96-338.816C834.688 201.088 741.312 128 649.6 128L409.536 128C318.272 128 221.824 198.08 189.312 287.68l-123.008 339.2L64 640l0 73.088C64 813.952 141.568 896 236.992 896l550.656 0c95.488 0 172.864-82.24 172.352-183.424L959.68 642.944zM253.696 313.92c22.208-61.312 93.12-112.768 155.84-112.768l240.064 0c61.44 0 127.936 52.032 145.6 113.728l83.904 293.12L147.072 608 253.696 313.92zM787.648 822.784 236.992 822.784c-57.344 0-104-49.344-104-109.76L132.992 672l757.824 0 0.192 40.96C891.328 773.568 844.928 822.784 787.648 822.784z" p-id="4467"></path><path d="M736 704l64 0 0 64-64 0 0-64Z" p-id="4468"></path></svg>