<?xml version="1.0" standalone="no"?><!DOCTYPE svg PUBLIC "-//W3C//DTD SVG 1.1//EN" "http://www.w3.org/Graphics/SVG/1.1/DTD/svg11.dtd"><svg t="1678012239272" class="icon" viewBox="0 0 1024 1024" version="1.1" xmlns="http://www.w3.org/2000/svg" p-id="5402" xmlns:xlink="http://www.w3.org/1999/xlink" width="200" height="200"><path d="M885.46816 291.2256a30.26432 30.26432 0 0 0-1.14176-5.0688l-0.07168-0.19456a31.03744 31.03744 0 0 0-1.62816-3.94752c-0.08704-0.17408-0.16384-0.35328-0.25088-0.52224a31.27296 31.27296 0 0 0-2.24768-3.68128c-0.05632-0.08192-0.09728-0.17408-0.1536-0.256l-151.46496-209.17248c-0.12288-0.17408-0.27136-0.32256-0.39936-0.49152a31.0272 31.0272 0 0 0-1.51552-1.85344c-0.25088-0.2816-0.49664-0.5632-0.75776-0.83456a32.14336 32.14336 0 0 0-1.75616-1.6896c-0.2304-0.2048-0.44544-0.41984-0.68096-0.61952a30.37184 30.37184 0 0 0-2.67776-2.02752l-0.16896-0.1024a30.93504 30.93504 0 0 0-2.72896-1.60256c-0.25088-0.13312-0.512-0.24576-0.76288-0.36864-0.76288-0.37376-1.536-0.7168-2.33472-1.024-0.30208-0.11776-0.60928-0.22528-0.91648-0.3328a31.09376 31.09376 0 0 0-2.35008-0.7168c-0.32256-0.08704-0.64512-0.17408-0.96768-0.25088a28.74368 28.74368 0 0 0-2.50368-0.45056c-0.30208-0.04096-0.59392-0.1024-0.90112-0.13824a30.76096 30.76096 0 0 0-3.45088-0.2048H250.85952c-63.93856 0-115.95776 52.0192-115.95776 115.95776v690.31424c0 63.93856 52.0192 115.95776 115.95776 115.95776h518.99392c63.93856 0 115.95264-52.0192 115.95264-115.95776V295.56736a29.62432 29.62432 0 0 0-0.33792-4.34176z m-151.12192-110.0288l60.57472 83.65056h-60.57472V181.1968z m90.02496 680.75008c0 30.05952-24.45312 54.51776-54.51264 54.51776H250.85952c-30.05952 0-54.51776-24.45824-54.51776-54.51776V171.63264c0-30.05952 24.45824-54.51776 54.51776-54.51776h422.04672v178.45248a30.72 30.72 0 0 0 30.72 30.72h120.74496v535.65952z" fill="#ffffff" p-id="5403"></path><path d="M285.37856 502.73792v147.73248h50.5344v-59.136l11.1872 12.04736h79.77984v-83.87072l-22.36416-16.768H285.37856z m95.6928 73.76384h-45.1584v-46.66368h45.1584v46.66368zM439.77216 502.73792v147.73248h50.5344v-59.136l11.1872 12.04736h79.77984v-83.87072l-22.36416-16.768H439.77216z m95.69792 73.76384h-45.1584v-46.66368h45.1584v46.66368zM594.16576 529.61792h50.32448v120.85248h52.89984v-120.85248h39.7824l10.32192-27.09504h-153.32864z" fill="#ffffff" p-id="5404"></path></svg>